<?xml version="1.0" encoding="UTF-8"?>
<svg version="1.1" xmlns="http://www.w3.org/2000/svg" width="500" height="500">
<path d="M0 0 C45.98126185 -0.74986151 87.22264908 6.67252709 121.78173828 39.05761719 C125.62439997 37.49208835 127.90571811 34.9943678 130.78173828 32.05761719 C148.65647365 17.2197221 169.37363531 8.35593619 191.96923828 3.43261719 C192.90832031 3.21605469 193.84740234 2.99949219 194.81494141 2.77636719 C222.60605724 -3.31999133 254.60552261 -1.2638811 282.34423828 4.43261719 C283.32714844 4.62944092 284.31005859 4.82626465 285.32275391 5.02905273 C293.90457113 6.92916128 293.90457113 6.92916128 296.78173828 11.05761719 C297.83150793 14.20692612 297.88305423 16.44576175 297.84423828 19.74511719 C297.83521484 20.73898438 297.82619141 21.73285156 297.81689453 22.75683594 C297.79949219 23.89572266 297.79949219 23.89572266 297.78173828 25.05761719 C298.55388672 24.89648438 299.32603516 24.73535156 300.12158203 24.56933594 C304.87990887 23.90408427 309.54573118 23.87344717 314.34423828 23.87011719 C315.74319336 23.85174805 315.74319336 23.85174805 317.17041016 23.83300781 C323.07522975 23.82038168 327.34147935 23.83341282 331.88193703 27.97186947 C334.67138528 32.50262424 334.32902138 36.50621702 334.2762146 41.73036194 C334.28104343 42.81803673 334.28587226 43.90571152 334.29084742 45.02634615 C334.30213573 48.67771915 334.28478524 52.32839456 334.26757812 55.97973633 C334.26972353 58.59464203 334.27360055 61.2095468 334.27908325 63.82444763 C334.28916342 70.19331186 334.27788925 76.56196829 334.25938265 82.9308067 C334.23861047 90.34592294 334.23875513 97.7609943 334.23972781 105.17613416 C334.24072897 118.40498292 334.22240767 131.63373497 334.19335938 144.86254883 C334.16517898 157.70273602 334.15101809 170.5428381 334.15234375 183.38305664 C334.15242366 184.17402223 334.15250357 184.96498783 334.15258591 185.77992208 C334.15266662 186.56951298 334.15274733 187.35910388 334.15283048 188.17262179 C334.15420982 202.7865146 334.14243278 217.40037121 334.12452405 232.01425229 C334.11848899 237.18463863 334.11636465 242.35501832 334.11545944 247.52540779 C334.11395351 254.48160201 334.10127443 261.43770467 334.08112717 268.3938694 C334.07527266 270.95131633 334.07282734 273.50877359 334.07398224 276.06622696 C334.07495983 279.54819963 334.06368995 283.02991865 334.04916382 286.51185608 C334.05226102 287.53178636 334.05535823 288.55171664 334.05854928 289.6025539 C334.04887595 290.99974979 334.04887595 290.99974979 334.03900719 292.42517185 C334.03759834 293.22898747 334.03618949 294.03280309 334.03473794 294.86097676 C333.74949514 297.33756455 333.07731364 298.93809689 331.78173828 301.05761719 C328.5223135 303.38577775 325.70087974 303.32140555 321.78173828 303.05761719 C318.70361328 301.88574219 318.70361328 301.88574219 315.53173828 300.30761719 C309.99126797 297.57872882 304.5819653 295.377708 298.78173828 293.05761719 C298.78173828 300.31761719 298.78173828 307.57761719 298.78173828 315.05761719 C300.76173828 315.71761719 302.74173828 316.37761719 304.78173828 317.05761719 C310.66483744 320.81303424 314.52019694 325.8524794 316.53173828 332.55761719 C317.36925547 340.93278909 316.39621026 348.12346619 311.09423828 354.87011719 C306.16902453 360.1638008 299.81133717 362.64643363 292.71923828 363.37011719 C285.37965559 362.78761062 278.89038771 360.80590937 273.78173828 355.30761719 C269.32934014 349.53124454 267.1255274 343.75670969 267.44189453 336.41699219 C268.55652905 328.67860999 271.64982717 323.43185813 277.58642578 318.43261719 C279.78173828 317.05761719 279.78173828 317.05761719 285.78173828 315.05761719 C285.78173828 306.14761719 285.78173828 297.23761719 285.78173828 288.05761719 C282.48173828 287.39761719 279.18173828 286.73761719 275.78173828 286.05761719 C271.50048828 285.09277344 271.50048828 285.09277344 269.41845703 284.61181641 C253.66139988 280.98582085 237.86199147 278.67324546 221.78173828 277.05761719 C221.80792236 277.94022217 221.83410645 278.82282715 221.86108398 279.73217773 C221.94654103 283.02173299 222.00909573 286.3101014 222.05639648 289.6003418 C222.08146976 291.0214301 222.11553827 292.44239032 222.15893555 293.86303711 C222.21991686 295.91129181 222.2480159 297.95783602 222.27001953 300.00683594 C222.29620361 301.23748779 222.3223877 302.46813965 222.34936523 303.73608398 C221.62419811 307.97948126 220.02580452 309.3304593 216.78173828 312.05761719 C215.92193359 312.8684375 215.06212891 313.67925781 214.17626953 314.51464844 C213.32419922 315.29195313 212.47212891 316.06925781 211.59423828 316.87011719 C210.73443359 317.6603125 209.87462891 318.45050781 208.98876953 319.26464844 C206.78173828 321.05761719 206.78173828 321.05761719 204.78173828 321.05761719 C204.78173828 329.30761719 204.78173828 337.55761719 204.78173828 346.05761719 C206.43173828 346.38761719 208.08173828 346.71761719 209.78173828 347.05761719 C215.63244732 350.06053793 219.28388914 354.31118725 221.93408203 360.27636719 C223.88765609 366.68625072 223.95036571 373.29896649 221.09423828 379.43261719 C220.3590822 380.66298258 219.5889854 381.87330069 218.78173828 383.05761719 C217.69892578 384.66636719 217.69892578 384.66636719 216.59423828 386.30761719 C211.14033685 391.64032081 205.80133806 393.29404477 198.21923828 393.55761719 C190.23201235 393.2600721 185.51537109 391.12864547 179.96923828 385.43261719 C175.42684629 379.82998724 173.35961352 373.65228344 173.84423828 366.43261719 C175.17869303 358.53709325 178.72021439 353.61031896 184.68408203 348.40527344 C187.06284595 346.87701729 189.02067361 346.54221918 191.78173828 346.05761719 C191.77126465 345.20006836 191.76079102 344.34251953 191.75 343.45898438 C191.71585532 340.26840205 191.69080869 337.07791307 191.671875 333.88720703 C191.66183575 332.50794404 191.64820151 331.12870222 191.63085938 329.74951172 C191.60652074 327.76376579 191.59630573 325.77786269 191.58642578 323.79199219 C191.57595215 322.59799805 191.56547852 321.40400391 191.5546875 320.17382812 C191.87066117 315.83717444 192.83088249 313.92067619 196.02392578 311.02246094 C196.89275391 310.3534375 197.76158203 309.68441406 198.65673828 308.99511719 C199.52041016 308.32351563 200.38408203 307.65191406 201.27392578 306.95996094 C203.78173828 305.05761719 203.78173828 305.05761719 205.90039062 303.8125 C208.03656543 302.16187146 208.03656543 302.16187146 208.32763672 299.33032227 C208.35905762 297.72000122 208.35905762 297.72000122 208.39111328 296.07714844 C208.43945312 294.33208008 208.43945312 294.33208008 208.48876953 292.55175781 C208.50294922 291.33681641 208.51712891 290.121875 208.53173828 288.87011719 C208.57621094 287.03030273 208.57621094 287.03030273 208.62158203 285.15332031 C208.69236727 282.12135266 208.74502241 279.09015786 208.78173828 276.05761719 C172.29927845 277.78529211 172.29927845 277.78529211 136.28735352 283.53271484 C133.4681423 284.12331254 130.62295648 284.58408082 127.78173828 285.05761719 C128.44173828 314.75761719 129.10173828 344.45761719 129.78173828 375.05761719 C133.74173828 377.03761719 133.74173828 377.03761719 137.78173828 379.05761719 C142.82713713 383.31002604 146.34902381 389.04899836 147.06298828 395.66308594 C147.30812527 403.06826575 146.04086248 408.62998047 141.96923828 414.80761719 C136.3757178 420.56095254 130.45330896 423.08288355 122.53173828 423.49511719 C115.60047062 423.34423245 110.03099096 421.0108717 104.89501953 416.34277344 C99.76759416 410.66908483 97.69699305 404.69679462 97.78173828 397.05761719 C98.91271255 390.3838501 101.25833902 385.07269028 105.78173828 380.05761719 C108.75173828 378.40761719 111.72173828 376.75761719 114.78173828 375.05761719 C114.78173828 345.02761719 114.78173828 314.99761719 114.78173828 284.05761719 C111.15173828 283.72761719 107.52173828 283.39761719 103.78173828 283.05761719 C101.5255966 282.60599784 99.2690446 282.15417366 97.02441406 281.6484375 C86.71969372 279.34905466 76.42142423 278.41520953 65.90673828 277.80761719 C64.87320221 277.74636154 64.87320221 277.74636154 63.81878662 277.68386841 C54.13301581 277.12522373 44.4808262 276.96340047 34.78173828 277.05761719 C33.29173442 292.6870361 33.29173442 292.6870361 38.19189453 306.68261719 C40.96763085 308.84761837 43.64858745 310.47266552 46.78173828 312.05761719 C49.22402685 314.11063269 49.74054031 314.93402326 50.78173828 318.05761719 C50.86511868 320.19556244 50.88907575 322.33603728 50.87939453 324.47558594 C50.87617188 325.72919922 50.87294922 326.9828125 50.86962891 328.27441406 C50.86125 329.58474609 50.85287109 330.89507812 50.84423828 332.24511719 C50.83922146 333.580402 50.83465887 334.9156886 50.83056641 336.25097656 C50.81876523 339.51990192 50.80230125 342.7887371 50.78173828 346.05761719 C51.56347412 346.19482178 52.34520996 346.33202637 53.15063477 346.47338867 C58.34245892 347.6262174 61.94188251 351.76164118 65.18408203 355.80761719 C68.9212419 361.9785858 68.56378882 369.09247955 67.78173828 376.05761719 C66.07049641 382.72076524 61.33339728 387.23245177 55.78173828 391.05761719 C49.65027858 394.11826291 42.25360846 394.02166167 35.62548828 392.59277344 C29.32475993 390.17272096 23.66242698 385.13907112 20.78173828 379.05761719 C18.62032372 371.95582648 18.75682223 364.35407234 21.90673828 357.62011719 C24.95805874 352.21962672 28.65911365 349.47270028 33.78173828 346.05761719 C35.10173828 346.05761719 36.42173828 346.05761719 37.78173828 346.05761719 C39.04276233 331.6373761 39.04276233 331.6373761 34.62939453 318.60058594 C32.11448893 316.43281855 29.62762134 314.75378097 26.78173828 313.05761719 C24.66570749 311.11335401 23.06575634 309.62565331 21.78173828 307.05761719 C21.69600434 304.80640976 21.6746164 302.55262416 21.68408203 300.29980469 C21.68549698 299.63675323 21.68691193 298.97370178 21.68836975 298.29055786 C21.69397074 296.17119856 21.70652328 294.0519446 21.71923828 291.93261719 C21.72425316 290.4964208 21.72881609 289.06022275 21.73291016 287.62402344 C21.74394046 284.10185374 21.76120569 280.57974574 21.78173828 277.05761719 C21.12173828 277.38761719 20.46173828 277.71761719 19.78173828 278.05761719 C17.65810187 278.25279656 15.53379424 278.44242499 13.40722656 278.60253906 C-1.23299704 279.71950435 -16.10780057 281.9645685 -30.19482422 286.21386719 C-33.21826172 287.05761719 -33.21826172 287.05761719 -37.21826172 287.05761719 C-37.21826172 296.29761719 -37.21826172 305.53761719 -37.21826172 315.05761719 C-35.23826172 315.71761719 -33.25826172 316.37761719 -31.21826172 317.05761719 C-25.07953138 321.00082297 -21.03899629 325.96693036 -19.21826172 333.05761719 C-17.98250644 341.09591107 -19.59792275 347.3902926 -24.21826172 354.05761719 C-28.49751985 359.09078929 -33.70170508 361.9801579 -40.21826172 363.05761719 C-47.09478771 363.29304746 -53.66454564 362.3224962 -59.21826172 358.05761719 C-64.94888797 352.30434024 -68.16349464 346.7625211 -68.24169922 338.61621094 C-67.79487601 330.91438988 -65.58682235 324.9433121 -59.84326172 319.68261719 C-56.61622829 316.94499167 -54.65285596 316.53581527 -50.21826172 315.05761719 C-50.21826172 307.46761719 -50.21826172 299.87761719 -50.21826172 292.05761719 C-53.37388672 293.31574219 -56.52951172 294.57386719 -59.78076172 295.87011719 C-60.76117432 296.26046143 -61.74158691 296.65080566 -62.75170898 297.05297852 C-63.54633545 297.37032959 -64.34096191 297.68768066 -65.15966797 298.01464844 C-66.45783447 298.53200562 -66.45783447 298.53200562 -67.78222656 299.05981445 C-69.91580253 299.93372957 -72.00834428 300.86539808 -74.10498047 301.82324219 C-78.54729579 303.58456169 -80.62401643 303.20617851 -85.21826172 302.05761719 C-87.9411373 299.24450638 -88.59387037 297.26060239 -88.60137177 293.39393711 C-88.6104284 292.4555064 -88.61948504 291.51707568 -88.62881613 290.55020767 C-88.6234882 289.5224955 -88.61816028 288.49478332 -88.6126709 287.43592834 C-88.618762 286.34164644 -88.62485311 285.24736454 -88.63112879 284.11992258 C-88.64782454 280.44027689 -88.64297349 276.76097476 -88.63818359 273.08129883 C-88.64552006 270.44845722 -88.65410504 267.81561883 -88.66384888 265.18278503 C-88.68491499 258.76604758 -88.68944307 252.34940046 -88.68766099 245.93263251 C-88.68635401 240.7177515 -88.69015421 235.5028987 -88.69758606 230.28802299 C-88.69968522 228.78660963 -88.70178282 227.28519627 -88.70387888 225.7837829 C-88.70492241 225.0365189 -88.70596593 224.28925489 -88.70704108 223.51934653 C-88.72594805 209.3831001 -88.7248918 195.24690556 -88.71807176 181.11065172 C-88.71249532 168.17468299 -88.73332511 155.23891225 -88.76643223 142.30298979 C-88.8001538 129.02404621 -88.81533953 115.74519752 -88.8107152 102.46621031 C-88.80846902 95.0095716 -88.81373516 87.55311591 -88.83860779 80.09651375 C-88.85960116 73.7487743 -88.86323267 67.40131824 -88.8443082 61.05356724 C-88.83513798 57.81429878 -88.83674662 54.57566979 -88.85466385 51.33642197 C-88.8727453 47.82589027 -88.86018802 44.31677711 -88.83972168 40.80628967 C-88.85223953 39.78080822 -88.86475738 38.75532676 -88.87765455 37.69877011 C-88.81871027 33.00014734 -88.76956533 30.78663256 -85.86692047 26.94832516 C-81.88159455 24.10345604 -79.01488244 23.93665806 -74.23779297 23.95996094 C-73.07441406 23.96318359 -71.91103516 23.96640625 -70.71240234 23.96972656 C-69.49746094 23.97810547 -68.28251953 23.98648438 -67.03076172 23.99511719 C-65.80421875 23.99962891 -64.57767578 24.00414063 -63.31396484 24.00878906 C-60.28201504 24.02058653 -57.25016266 24.03704798 -54.21826172 24.05761719 C-54.16637695 23.29908447 -54.11449219 22.54055176 -54.06103516 21.7590332 C-53.98401367 20.76572998 -53.90699219 19.77242676 -53.82763672 18.74902344 C-53.75512695 17.76361572 -53.68261719 16.77820801 -53.60791016 15.76293945 C-53.08877814 12.158615 -51.96592618 10.42366159 -49.21826172 8.05761719 C-34.58197044 1.38615507 -15.91240192 0.28488294 0 0 Z M-1.43798828 18.09570312 C-9.75800576 18.29104613 -17.58373999 19.41588279 -25.71044922 21.10449219 C-26.62882568 21.29188965 -27.54720215 21.47928711 -28.4934082 21.67236328 C-30.73580074 22.1304708 -32.97735841 22.59228951 -35.21826172 23.05761719 C-35.37203311 50.66441231 -35.52006986 78.27123298 -35.66122532 105.87809563 C-35.72689658 118.69560221 -35.79446494 131.51309362 -35.86645508 144.33056641 C-35.92917577 155.49851111 -35.98838218 166.66646788 -36.04331726 177.8344537 C-36.07254567 183.75119421 -36.10356859 189.66791334 -36.13879585 195.58462143 C-36.17186301 201.14783057 -36.20024938 206.7110435 -36.22496796 212.27429581 C-36.23490303 214.32141288 -36.24658228 216.3685223 -36.26009178 218.4156189 C-36.27821202 221.20000303 -36.29018688 223.98434614 -36.30055237 226.76876831 C-36.30735616 227.58782367 -36.31415995 228.40687902 -36.32116991 229.25075424 C-36.42580119 233.2845324 -36.42580119 233.2845324 -35.21826172 237.05761719 C-34.13673828 236.92484375 -33.05521484 236.79207031 -31.94091797 236.65527344 C19.25948779 230.65535868 67.47561925 235.90455767 113.78173828 259.05761719 C113.83496241 227.41537079 113.85350857 195.7734091 113.80807865 164.13115633 C113.80313416 160.68281546 113.79846071 157.23447427 113.79394531 153.78613281 C113.79305318 153.11362401 113.79216105 152.44111521 113.79124188 151.74822736 C113.77839596 141.56247784 113.79244347 131.3770218 113.82168865 121.1913166 C113.84221506 113.40876535 113.83558948 105.62659722 113.80347919 97.84408379 C113.78623282 93.47230392 113.78244915 89.10152817 113.81277466 84.72979736 C113.84044583 80.69700737 113.83152498 76.66603986 113.79300117 72.63335419 C113.78563599 71.18910848 113.79166946 69.7447163 113.81275749 68.30060577 C114.0889867 60.54820202 114.0889867 60.54820202 111.02416992 53.71357727 C109.02627124 51.95337679 107.00741227 50.51062021 104.78173828 49.05761719 C103.93611328 48.19007812 103.09048828 47.32253906 102.21923828 46.42871094 C99.2929433 43.58213873 96.18033948 41.36445988 92.78173828 39.12011719 C92.1252832 38.68554199 91.46882813 38.2509668 90.79248047 37.80322266 C84.7338837 33.88046374 78.46463198 30.78798232 71.78173828 28.05761719 C70.55390625 27.52587891 70.55390625 27.52587891 69.30126953 26.98339844 C54.69351431 21.10778306 38.47119128 18.21521214 22.78173828 18.05761719 C21.93611328 18.0439209 21.09048828 18.03022461 20.21923828 18.01611328 C12.99686017 17.90967554 5.78361351 17.97179531 -1.43798828 18.09570312 Z M217.99658203 18.07324219 C189.01299196 18.9881695 157.76442091 30.88216461 137.23095703 51.63574219 C134.78173828 54.05761719 134.78173828 54.05761719 132.65872574 55.20714283 C130.23986727 57.59183409 130.30250639 59.4267695 130.26541305 62.7318303 C130.27706441 63.50906333 130.28871578 64.28629636 130.30072021 65.08708191 C130.29730252 65.91452276 130.29388482 66.74196361 130.29036355 67.59447843 C130.28375606 70.37705478 130.30580765 73.15867411 130.32763672 75.94116211 C130.32876458 77.93172686 130.32813254 79.92229328 130.3258667 81.91285706 C130.32471622 87.32587482 130.34827956 92.73854004 130.37616253 98.15147567 C130.40112064 103.80492997 130.40351377 109.45839181 130.40826416 115.1118927 C130.42071039 125.82165949 130.45355432 136.53126349 130.49366212 147.24095851 C130.53832858 159.43182518 130.56035397 171.62269951 130.58044386 183.8136276 C130.62228548 208.89504781 130.69266955 233.97632339 130.78173828 259.05761719 C131.57144516 258.6781192 131.57144516 258.6781192 132.37710571 258.29095459 C134.81518856 257.12151514 137.25547351 255.95674039 139.69580078 254.79199219 C140.52345947 254.39415527 141.35111816 253.99631836 142.20385742 253.58642578 C185.4984799 232.96190519 232.89975728 231.84850819 279.78173828 237.05761719 C279.78173828 166.43761719 279.78173828 95.81761719 279.78173828 23.05761719 C266.97596772 20.36166549 255.64343075 18.26264723 242.78173828 18.05761719 C241.92757324 18.0424707 241.0734082 18.02732422 240.19335938 18.01171875 C234.84466337 17.93184385 229.50192033 17.9351416 224.15332031 18.02050781 C222.10125014 18.05261762 220.04888592 18.06477034 217.99658203 18.07324219 Z M-71.21826172 42.05761719 C-71.21826172 120.59761719 -71.21826172 199.13761719 -71.21826172 280.05761719 C-66.18021581 278.79810571 -62.70637247 277.88523387 -58.22851562 275.86962891 C-53.75538362 274.06277476 -49.05078612 272.89970721 -44.40576172 271.62011719 C-43.29789307 271.31299805 -42.19002441 271.00587891 -41.04858398 270.68945312 C-31.83230426 268.16568622 -22.59144573 265.91893955 -13.21826172 264.05761719 C-12.05206299 263.81551514 -10.88586426 263.57341309 -9.68432617 263.32397461 C-0.32019979 261.42785433 8.91752759 260.36977652 18.46923828 259.87011719 C19.16387177 259.83025696 19.85850525 259.79039673 20.57418823 259.74932861 C35.31222821 258.90583798 50.02246586 258.83856188 64.78173828 259.05761719 C59.29445216 255.39942644 52.21949056 255.10178151 45.78173828 254.05761719 C44.93466309 253.91646484 44.08758789 253.7753125 43.21484375 253.62988281 C20.79955199 249.9867282 -1.19554063 250.33520926 -23.69311523 252.98974609 C-46.10522408 255.5923231 -46.10522408 255.5923231 -50.04956055 252.72753906 C-52.8130251 248.77890786 -52.37079882 244.4812172 -52.3764801 239.876297 C-52.38388707 238.61063441 -52.38388707 238.61063441 -52.39144367 237.31940287 C-52.40684573 234.48189886 -52.41518663 231.64441752 -52.42358398 228.80688477 C-52.43316038 226.77690938 -52.44317032 224.74693599 -52.45358276 222.71696472 C-52.48066375 217.19667006 -52.50165602 211.67636683 -52.52158475 206.15604234 C-52.54342461 200.39044515 -52.57082307 194.6248745 -52.59764099 188.85929871 C-52.64759495 177.9371288 -52.69252375 167.01494419 -52.73566335 156.09274548 C-52.78501264 143.66000497 -52.83993932 131.22729107 -52.89534295 118.79457629 C-53.00920449 93.21561457 -53.1158366 67.63662704 -53.21826172 42.05761719 C-59.15826172 42.05761719 -65.09826172 42.05761719 -71.21826172 42.05761719 Z M297.78173828 43.05761719 C297.77934993 44.1207526 297.77696157 45.18388802 297.77450085 46.27923965 C297.71575414 72.1257967 297.63990134 97.97226016 297.54602337 123.81871414 C297.50102268 136.31777352 297.4616179 148.81680413 297.43530273 161.31591797 C297.41235724 172.20781334 297.37899795 183.09961801 297.33303672 193.99144149 C297.30905794 199.76068842 297.2903597 205.52984526 297.28412437 211.29914093 C297.27809456 216.72622848 297.25817112 222.15308535 297.22746277 227.58008766 C297.21864871 229.57473718 297.21496689 231.5694168 297.21673012 233.56408501 C297.21837472 236.28235193 297.20175346 238.99990882 297.1804657 241.71807861 C297.18531327 242.51185354 297.19016085 243.30562848 297.19515532 244.12345719 C297.15325887 247.35335383 296.98438049 249.68359247 295.43137836 252.55002975 C292.2103956 255.49364951 287.92007366 254.44167749 283.80126953 254.32714844 C278.39112361 254.01637252 273.03993134 253.29141307 267.67236328 252.56933594 C261.71126709 251.78529618 255.78933082 251.27512689 249.78173828 251.05761719 C248.37529053 251.00661865 248.37529053 251.00661865 246.94042969 250.95458984 C232.88512273 250.52814668 219.14861299 251.05309571 205.21923828 252.87011719 C203.94250244 253.03535889 202.6657666 253.20060059 201.3503418 253.37084961 C193.97585979 254.40556564 186.90543821 255.88395897 179.78173828 258.05761719 C179.78173828 258.38761719 179.78173828 258.71761719 179.78173828 259.05761719 C180.88569946 259.04190674 180.88569946 259.04190674 182.01196289 259.02587891 C227.27674565 258.47544131 270.07151803 263.23778314 312.78100586 279.33642578 C314.58407205 280.11413479 314.58407205 280.11413479 315.78173828 280.05761719 C315.78173828 201.84761719 315.78173828 123.63761719 315.78173828 43.05761719 C302.63283219 41.2302343 302.63283219 41.2302343 297.78173828 43.05761719 Z M-52.21826172 330.05761719 C-54.57957238 333.44216247 -55.47930845 336.05085926 -55.21826172 340.12011719 C-54.66536933 343.12646953 -54.01284485 344.35932322 -52.21826172 346.99511719 C-48.26915558 349.71012766 -44.99185545 350.49463633 -40.21826172 350.05761719 C-37.00249134 348.47896627 -35.04578997 347.11083496 -32.84326172 344.30761719 C-31.88438437 340.85565875 -31.64443392 337.5775609 -32.21826172 334.05761719 C-34.31188349 330.61809571 -36.33734003 328.27733543 -40.21826172 327.05761719 C-45.17903782 326.60663754 -48.335249 326.82177326 -52.21826172 330.05761719 Z M282.78173828 331.05761719 C280.19529364 334.46702149 280.41670713 337.89626208 280.78173828 342.05761719 C282.09765966 345.10501407 283.42665577 346.74430909 285.90673828 348.93261719 C290.05361399 350.55530768 293.5354662 350.34226834 297.78173828 349.05761719 C300.48726216 346.85937904 302.22952162 345.16205052 303.78173828 342.05761719 C304.18884421 337.82371557 304.03749793 335.54173367 302.03173828 331.74511719 C298.84724024 327.9414112 297.31033942 327.22746176 292.40673828 326.68261719 C288.08877221 327.12930333 286.0884728 328.28918829 282.78173828 331.05761719 Z M35.78173828 360.05761719 C33.05439054 362.96132921 32.3305523 365.03508023 32.28173828 368.99511719 C32.40827816 372.73079435 32.65668399 373.87572003 34.84423828 377.05761719 C38.26727601 379.38819607 40.66621772 380.48995918 44.78173828 381.05761719 C48.41020699 379.96907658 50.88438316 378.89514864 53.65673828 376.30761719 C55.50190906 372.61727563 56.44937295 369.21084953 55.19189453 365.15527344 C53.46306996 361.64568535 51.75327799 359.72275936 48.15673828 358.12011719 C42.95656281 356.48302491 40.67333059 357.65472974 35.78173828 360.05761719 Z M188.90673828 361.74511719 C187.26516075 365.11947099 186.55213137 368.33368017 186.78173828 372.05761719 C188.56250741 375.83284773 190.16676465 377.63396868 193.59423828 379.99511719 C197.56633192 381.3191484 199.76474671 381.22619656 203.78173828 380.05761719 C206.3647161 377.86770121 208.26589672 376.08930031 209.78173828 373.05761719 C210.28548827 366.68075305 210.28548827 366.68075305 207.78173828 361.05761719 C201.14889101 356.21743134 195.28693146 356.00294333 188.90673828 361.74511719 Z M111.84423828 393.30761719 C110.38861321 397.07511737 110.50911198 400.2854614 111.78173828 404.05761719 C115.20119355 408.17849918 117.20752735 409.90019609 122.53173828 410.43261719 C125.88231896 410.40820494 127.6306836 409.81363072 130.21923828 407.68261719 C133.32814496 404.49788352 133.9564987 403.05854106 134.09423828 398.74511719 C134.05078564 395.36667416 133.83095555 394.1432917 132.09423828 391.12011719 C128.9653291 388.32946846 126.45440383 387.31495035 122.34423828 386.68261719 C117.76235932 387.35313606 114.80570287 389.86849702 111.84423828 393.30761719 Z " fill="#5C33E4" transform="translate(127.21826171875,46.9423828125)"/>
<path d="M0 0 C0.66 0 1.32 0 2 0 C0.125 3.875 0.125 3.875 -1 5 C-1.10158144 6.42810003 -1.1339711 7.86118524 -1.1386652 9.29288578 C-1.14413964 10.22494345 -1.14961409 11.15700112 -1.15525442 12.11730295 C-1.15623253 13.15327331 -1.15721064 14.18924366 -1.15821838 15.25660706 C-1.16315636 16.34776996 -1.16809434 17.43893287 -1.17318195 18.56316131 C-1.18864165 22.24986959 -1.19694038 25.93656034 -1.20532227 29.62329102 C-1.21489414 32.25394853 -1.2249038 34.88460449 -1.23532104 37.51525879 C-1.25711511 43.19451221 -1.27524883 48.87376798 -1.29092598 54.55304146 C-1.313598 62.76440847 -1.34174447 70.97574946 -1.37124526 79.18709444 C-1.41895396 92.50810032 -1.46220923 105.82911681 -1.50268555 119.15014648 C-1.54202382 132.09351427 -1.58344601 145.03687261 -1.62768555 157.98022461 C-1.63040982 158.77748971 -1.63313409 159.5747548 -1.63594092 160.39617945 C-1.64962012 164.39565595 -1.66334045 168.39513232 -1.67708123 172.39460862 C-1.79109749 205.59638628 -1.89789542 238.79818354 -2 272 C-2.33 272 -2.66 272 -3 272 C-3.06863136 237.92648315 -3.12151109 203.85298347 -3.15319599 169.77941288 C-3.15694821 165.75886629 -3.16083117 161.73831983 -3.16479492 157.71777344 C-3.16597532 156.51712016 -3.16597532 156.51712016 -3.16717956 155.29221126 C-3.18024186 142.32304031 -3.20390023 129.35390916 -3.23145839 116.38476184 C-3.25948969 103.08223903 -3.27617143 89.7797371 -3.28226548 76.47718596 C-3.28638666 68.26543752 -3.29941399 60.05380155 -3.3237494 51.84208772 C-3.33957852 46.21487973 -3.34440679 40.5877301 -3.34050413 34.96050146 C-3.33857815 31.71139018 -3.34320677 28.46251796 -3.35761642 25.21343231 C-3.37246483 21.69390729 -3.36898131 18.17486996 -3.36076355 14.65533447 C-3.36950207 13.6242117 -3.3782406 12.59308892 -3.38724393 11.53072 C-3.38127078 10.58920579 -3.37529764 9.64769158 -3.36914349 8.67764664 C-3.37028265 7.86504513 -3.37142181 7.05244362 -3.37259549 6.21521783 C-2.90614563 3.4420011 -1.91001439 2.03606493 0 0 Z " fill="#7C7C7C" transform="translate(42,73)"/>
<path d="M0 0 C-1.875 3.875 -1.875 3.875 -3 5 C-3.15582303 6.34015221 -3.25044142 7.68758903 -3.31640625 9.03515625 C-3.37924805 10.24848633 -3.37924805 10.24848633 -3.44335938 11.48632812 C-3.48267578 12.33646484 -3.52199219 13.18660156 -3.5625 14.0625 C-3.60568359 14.91650391 -3.64886719 15.77050781 -3.69335938 16.65039062 C-3.79976702 18.76672037 -3.90041731 20.88333813 -4 23 C-4.33 23 -4.66 23 -5 23 C-5.08733513 19.91684615 -5.14050127 16.83401173 -5.1875 13.75 C-5.21263672 12.87730469 -5.23777344 12.00460938 -5.26367188 11.10546875 C-5.33775491 4.63555009 -5.33775491 4.63555009 -3.61328125 1.390625 C-2 0 -2 0 0 0 Z " fill="#847E9A" transform="translate(44,73)"/>
<path d="M0 0 C0.66 0.33 1.32 0.66 2 1 C-0.64 3.64 -3.28 6.28 -6 9 C-6 6 -6 6 -3.5625 3.375 C-2.716875 2.59125 -1.87125 1.8075 -1 1 C-0.67 0.67 -0.34 0.34 0 0 Z " fill="#7665AC" transform="translate(236,425)"/>
</svg>
