<?xml version="1.0" encoding="UTF-8"?>
<!DOCTYPE svg PUBLIC "-//W3C//DTD SVG 1.1//EN" "http://www.w3.org/Graphics/SVG/1.1/DTD/svg11.dtd">
<svg xmlns="http://www.w3.org/2000/svg" version="1.1" width="512px" height="512px" style="shape-rendering:geometricPrecision; text-rendering:geometricPrecision; image-rendering:optimizeQuality; fill-rule:evenodd; clip-rule:evenodd" xmlns:xlink="http://www.w3.org/1999/xlink">
<g><path style="opacity:0.996" fill="#010000" d="M 30.5,-0.5 C 92.1667,-0.5 153.833,-0.5 215.5,-0.5C 218.93,1.93541 220.596,5.26875 220.5,9.5C 219.817,14.3818 217.15,17.5485 212.5,19C 153.167,19.3333 93.8333,19.6667 34.5,20C 27,22.1667 22.1667,27 20,34.5C 19.5,130.833 19.3333,227.166 19.5,323.5C 26.1667,323.5 32.8333,323.5 39.5,323.5C 39.3334,292.165 39.5,260.832 40,229.5C 47.4872,195.346 68.3205,174.513 102.5,167C 90.0329,148.944 86.1996,129.11 91,107.5C 102.773,73.7493 126.273,60.2493 161.5,67C 182.347,74.8386 195.18,89.6719 200,111.5C 203.275,131.975 199.108,150.642 187.5,167.5C 203.485,170.663 218.151,176.829 231.5,186C 245.805,199.304 259.805,212.971 273.5,227C 275.289,227.52 276.956,227.187 278.5,226C 284.484,220.671 291.151,216.337 298.5,213C 327.036,210.206 340.536,223.039 339,251.5C 337.81,256.213 335.81,260.547 333,264.5C 322.784,274.351 312.284,283.851 301.5,293C 286.692,304.827 270.358,307.494 252.5,301C 248.664,298.916 244.997,296.583 241.5,294C 234,286.5 226.5,279 219,271.5C 218.5,288.83 218.333,306.163 218.5,323.5C 309.5,323.5 400.5,323.5 491.5,323.5C 491.667,227.166 491.5,130.833 491,34.5C 488.833,27 484,22.1667 476.5,20C 416.833,19.6667 357.167,19.3333 297.5,19C 293.113,17.4075 290.779,14.2408 290.5,9.5C 290.404,5.26875 292.07,1.93541 295.5,-0.5C 357.167,-0.5 418.833,-0.5 480.5,-0.5C 496.5,4.16667 506.833,14.5 511.5,30.5C 511.5,143.167 511.5,255.833 511.5,368.5C 507.015,384.484 496.681,394.651 480.5,399C 422.168,399.5 363.834,399.667 305.5,399.5C 305.5,412.833 305.5,426.167 305.5,439.5C 326.824,436.061 346.157,440.561 363.5,453C 379.871,467.111 387.038,484.944 385,506.5C 383.634,508.362 382.134,510.028 380.5,511.5C 297.167,511.5 213.833,511.5 130.5,511.5C 128.866,510.028 127.366,508.362 126,506.5C 124.646,473.188 139.813,451.354 171.5,441C 182.779,439.617 194.112,439.117 205.5,439.5C 205.5,426.167 205.5,412.833 205.5,399.5C 147.166,399.667 88.8324,399.5 30.5,399C 14.3186,394.651 3.98523,384.484 -0.5,368.5C -0.5,255.833 -0.5,143.167 -0.5,30.5C 4.16667,14.5 14.5,4.16667 30.5,-0.5 Z"/></g>
<g><path style="opacity:0.948" fill="#030303" d="M 250.5,-0.5 C 253.833,-0.5 257.167,-0.5 260.5,-0.5C 263.93,1.93541 265.596,5.26875 265.5,9.5C 262.674,19.1668 256.84,21.5001 248,16.5C 246.864,14.257 246.03,11.9237 245.5,9.5C 245.404,5.26875 247.07,1.93541 250.5,-0.5 Z"/></g>
<g><path style="opacity:1" fill="#fefefe" d="M 220.5,9.5 C 228.833,9.5 237.167,9.5 245.5,9.5C 246.03,11.9237 246.864,14.257 248,16.5C 256.84,21.5001 262.674,19.1668 265.5,9.5C 273.833,9.5 282.167,9.5 290.5,9.5C 290.779,14.2408 293.113,17.4075 297.5,19C 357.167,19.3333 416.833,19.6667 476.5,20C 484,22.1667 488.833,27 491,34.5C 491.5,130.833 491.667,227.166 491.5,323.5C 400.5,323.5 309.5,323.5 218.5,323.5C 218.333,306.163 218.5,288.83 219,271.5C 226.5,279 234,286.5 241.5,294C 244.997,296.583 248.664,298.916 252.5,301C 270.358,307.494 286.692,304.827 301.5,293C 312.284,283.851 322.784,274.351 333,264.5C 335.81,260.547 337.81,256.213 339,251.5C 340.536,223.039 327.036,210.206 298.5,213C 291.151,216.337 284.484,220.671 278.5,226C 276.956,227.187 275.289,227.52 273.5,227C 259.805,212.971 245.805,199.304 231.5,186C 218.151,176.829 203.485,170.663 187.5,167.5C 199.108,150.642 203.275,131.975 200,111.5C 195.18,89.6719 182.347,74.8386 161.5,67C 126.273,60.2493 102.773,73.7493 91,107.5C 86.1996,129.11 90.0329,148.944 102.5,167C 68.3205,174.513 47.4872,195.346 40,229.5C 39.5,260.832 39.3334,292.165 39.5,323.5C 32.8333,323.5 26.1667,323.5 19.5,323.5C 19.3333,227.166 19.5,130.833 20,34.5C 22.1667,27 27,22.1667 34.5,20C 93.8333,19.6667 153.167,19.3333 212.5,19C 217.15,17.5485 219.817,14.3818 220.5,9.5 Z"/></g>
<g><path style="opacity:1" fill="#010101" d="M 296.5,53.5 C 332.502,53.3333 368.502,53.5 404.5,54C 412.674,57.2122 414.508,62.7122 410,70.5C 408.352,71.717 406.519,72.5503 404.5,73C 368.5,73.6667 332.5,73.6667 296.5,73C 288.53,66.423 288.53,59.923 296.5,53.5 Z"/></g>
<g><path style="opacity:1" fill="#080808" d="M 444.5,53.5 C 456.516,54.3652 459.849,60.1985 454.5,71C 449.505,74.4724 444.672,74.3057 440,70.5C 435.762,63.1565 437.262,57.4898 444.5,53.5 Z"/></g>
<g><path style="opacity:1" fill="#fcdbcd" d="M 138.5,84.5 C 160.659,83.1776 174.492,93.1776 180,114.5C 183.974,132.336 179.474,147.503 166.5,160C 157.025,166.076 146.692,168.076 135.5,166C 116.754,158.863 108.087,145.196 109.5,125C 108.961,104.058 118.628,90.5583 138.5,84.5 Z"/></g>
<g><path style="opacity:1" fill="#020202" d="M 296.5,101.5 C 310.837,101.333 325.171,101.5 339.5,102C 345.777,104.389 347.943,108.889 346,115.5C 344.74,118.428 342.573,120.261 339.5,121C 325.167,121.667 310.833,121.667 296.5,121C 288.53,114.423 288.53,107.923 296.5,101.5 Z"/></g>
<g><path style="opacity:1" fill="#010101" d="M 379.5,101.5 C 402.836,101.333 426.169,101.5 449.5,102C 456.11,104.208 458.276,108.708 456,115.5C 454.74,118.428 452.573,120.261 449.5,121C 426.167,121.667 402.833,121.667 379.5,121C 370.221,114.503 370.221,108.003 379.5,101.5 Z"/></g>
<g><path style="opacity:1" fill="#000000" d="M 296.5,149.5 C 347.501,149.333 398.501,149.5 449.5,150C 456.482,153.169 458.316,158.336 455,165.5C 453.681,167.487 451.848,168.654 449.5,169C 398.5,169.667 347.5,169.667 296.5,169C 288.53,162.423 288.53,155.923 296.5,149.5 Z"/></g>
<g><path style="opacity:1" fill="#f3727e" d="M 106.5,187.5 C 115.833,187.5 125.167,187.5 134.5,187.5C 134.171,200.344 134.505,213.011 135.5,225.5C 138.719,233.27 144.053,235.104 151.5,231C 153.16,229.512 154.16,227.679 154.5,225.5C 155.495,213.011 155.829,200.344 155.5,187.5C 163.833,187.5 172.167,187.5 180.5,187.5C 194.79,188.874 207.79,193.708 219.5,202C 236.5,218.333 253.5,234.667 270.5,251C 274.12,251.841 277.454,251.174 280.5,249C 287.833,243.667 295.167,238.333 302.5,233C 315.333,231.167 320.833,236.667 319,249.5C 317.542,251.96 315.709,254.127 313.5,256C 303.833,264.333 294.167,272.667 284.5,281C 274.046,286.247 264.046,285.58 254.5,279C 241.443,266.278 228.776,253.278 216.5,240C 212.063,237.101 207.397,236.768 202.5,239C 200.959,240.579 199.792,242.413 199,244.5C 198.5,270.831 198.333,297.165 198.5,323.5C 166.833,323.5 135.167,323.5 103.5,323.5C 103.667,304.497 103.5,285.497 103,266.5C 97.4016,258.091 91.0683,257.424 84,264.5C 83.5,284.164 83.3334,303.831 83.5,323.5C 75.5,323.5 67.5,323.5 59.5,323.5C 59.3334,292.832 59.5,262.165 60,231.5C 65.7771,206.533 81.2771,191.866 106.5,187.5 Z"/></g>
<g><path style="opacity:1" fill="#91444b" d="M 106.5,187.5 C 115.986,186.506 125.652,186.173 135.5,186.5C 135.5,199.5 135.5,212.5 135.5,225.5C 134.505,213.011 134.171,200.344 134.5,187.5C 125.167,187.5 115.833,187.5 106.5,187.5 Z"/></g>
<g><path style="opacity:1" fill="#6b3237" d="M 180.5,187.5 C 172.167,187.5 163.833,187.5 155.5,187.5C 155.829,200.344 155.495,213.011 154.5,225.5C 154.5,212.5 154.5,199.5 154.5,186.5C 163.349,186.174 172.016,186.507 180.5,187.5 Z"/></g>
<g><path style="opacity:1" fill="#010101" d="M 379.5,197.5 C 402.836,197.333 426.169,197.5 449.5,198C 455.777,200.389 457.943,204.889 456,211.5C 454.74,214.428 452.573,216.261 449.5,217C 426.5,217.667 403.5,217.667 380.5,217C 373.53,213.081 372.03,207.581 376,200.5C 377.518,199.837 378.685,198.837 379.5,197.5 Z"/></g>
<g><path style="opacity:1" fill="#9ac5fe" d="M 19.5,343.5 C 176.833,343.5 334.167,343.5 491.5,343.5C 491.901,351.585 491.401,359.585 490,367.5C 487.341,373.492 482.841,377.325 476.5,379C 329.167,379.667 181.833,379.667 34.5,379C 28.1587,377.325 23.6587,373.492 21,367.5C 19.5989,359.585 19.0989,351.585 19.5,343.5 Z"/></g>
<g><path style="opacity:1" fill="#050608" d="M 252.5,351.5 C 264.516,352.365 267.849,358.199 262.5,369C 257.505,372.472 252.672,372.306 248,368.5C 243.762,361.157 245.262,355.49 252.5,351.5 Z"/></g>
<g><path style="opacity:1" fill="#79b2ff" d="M 225.5,399.5 C 245.5,399.5 265.5,399.5 285.5,399.5C 285.5,412.833 285.5,426.167 285.5,439.5C 265.5,439.5 245.5,439.5 225.5,439.5C 225.5,426.167 225.5,412.833 225.5,399.5 Z"/></g>
<g><path style="opacity:0.979" fill="#000000" d="M 94.5,511.5 C 64.5,511.5 34.5,511.5 4.5,511.5C 2.83333,509.833 1.16667,508.167 -0.5,506.5C -0.5,496.167 -0.5,485.833 -0.5,475.5C 8.58533,446.105 28.5853,432.938 59.5,436C 80.6667,441.167 93.8333,454.333 99,475.5C 99.6667,485.833 99.6667,496.167 99,506.5C 97.6343,508.362 96.1343,510.028 94.5,511.5 Z"/></g>
<g><path style="opacity:1" fill="#99c4fc" d="M 42.5,455.5 C 67.3482,454.682 79.6815,466.682 79.5,491.5C 59.5,491.5 39.5,491.5 19.5,491.5C 18.3223,473.706 25.9889,461.706 42.5,455.5 Z"/></g>
<g><path style="opacity:1" fill="#9ac5fe" d="M 179.5,459.5 C 230.866,459.027 282.2,459.527 333.5,461C 349.166,465.164 359.499,474.998 364.5,490.5C 291.833,491.833 219.167,491.833 146.5,490.5C 152.084,474.245 163.084,463.912 179.5,459.5 Z"/></g>
</svg>
