<?xml version="1.0" encoding="UTF-8"?>
<svg version="1.1" xmlns="http://www.w3.org/2000/svg" width="1000" height="1000">
<path d="M0 0 C1.40453129 0.97455905 2.80950267 1.94848406 4.21484375 2.921875 C16.90454445 11.75298288 29.13716679 21.07924044 41 31 C41.79011475 31.66056396 41.79011475 31.66056396 42.59619141 32.33447266 C59.38529735 46.41929308 76.25865328 61.35860681 90.4140625 78.13671875 C92.30191407 80.35471185 94.27702792 82.48242155 96.25 84.625 C101.33711517 90.26393783 105.9680377 96.21677201 110.61035156 102.22070312 C111.92781747 103.90757796 113.26666213 105.57390964 114.6171875 107.234375 C123.08132039 117.6909973 130.57723661 128.78859717 138 140 C138.53802246 140.81130371 139.07604492 141.62260742 139.63037109 142.45849609 C189.55070719 218.25053384 215.4467889 308.58920169 207.4375 513.84765625 C199.71099062 550.19618046 187.92351213 585.38228378 172.33837891 619.09716797 C171.17961225 621.61043605 170.04313983 624.13173849 168.91796875 626.66015625 C163.4195041 638.87642826 156.758137 650.44463622 150 662 C149.53190918 662.80083008 149.06381836 663.60166016 148.58154297 664.42675781 C135.1454435 687.25093263 119.83800232 708.95121337 102.546875 729.015625 C100.13584863 731.84081541 97.81397523 734.72022259 95.5 737.625 C91.55760691 742.47880655 87.26489824 746.86286852 82.7734375 751.19921875 C80.62101162 753.37286573 78.6316733 755.55736781 76.64453125 757.875 C73.10344735 761.96408588 69.28940775 765.65177663 65.3125 769.3125 C64.61552002 769.95912598 63.91854004 770.60575195 63.20043945 771.27197266 C61.79451716 772.57492826 60.38691601 773.87607497 58.97753906 775.17529297 C57.20584662 776.81006202 55.44135418 778.45210187 53.6796875 780.09765625 C8.18008902 822.44526202 -48.1663628 855.12985934 -106.49560547 876.08911133 C-108.80434337 876.92883653 -111.09315124 877.80915099 -113.3828125 878.69921875 C-122.0277852 881.80804803 -130.75382468 881.71287475 -139.23046875 878.03125 C-144.82401051 874.92489285 -148.58942616 870.42196949 -150.54825783 864.28128147 C-151.13217286 861.3325319 -151.13139827 858.5418595 -151.13803101 855.53465271 C-151.14085229 854.88718883 -151.14367357 854.23972495 -151.14658034 853.57264096 C-151.15490832 851.40445354 -151.15626313 849.23631732 -151.15771484 847.06811523 C-151.16238494 845.51216489 -151.16752883 843.9562159 -151.17311096 842.40026855 C-151.18438831 839.0472724 -151.19282478 835.69428511 -151.19923019 832.34127617 C-151.20993897 827.02192283 -151.23019673 821.70263249 -151.25234985 816.38331604 C-151.3141604 801.25565519 -151.36809549 786.12799663 -151.40136719 771.00024414 C-151.41982061 762.64653758 -151.44889749 754.29293545 -151.4893719 745.93930584 C-151.51028043 741.52722889 -151.52587576 737.11528268 -151.52817917 732.70315361 C-151.55173952 697.79006038 -153.35902684 660.80603139 -178.90234375 634.00390625 C-180.26546298 632.66644573 -181.6322275 631.33270141 -183 630 C-183 629.34 -183 628.68 -183 628 C-182.0205542 627.84966309 -181.0411084 627.69932617 -180.03198242 627.54443359 C-125.88115251 619.18941042 -68.42925471 608.01304611 -27.1171875 568.99609375 C-25.16081984 567.15162166 -23.13926614 565.45561717 -21.0625 563.75 C-0.91927979 546.11961612 12.61131821 520.62579494 22 496 C22.40943848 494.92661377 22.40943848 494.92661377 22.82714844 493.83154297 C35.11609512 460.90658384 39.24246886 424.76607807 39.1875 389.8125 C39.18689575 389.09422028 39.1862915 388.37594055 39.18566895 387.63589478 C39.1592264 375.99650099 38.77672584 364.51902335 37 353 C36.88172852 352.21512207 36.76345703 351.43024414 36.64160156 350.62158203 C33.537287 330.96487264 27.22284612 311.63770786 18 294 C17.67451172 293.36723145 17.34902344 292.73446289 17.01367188 292.08251953 C10.51001965 279.54108391 2.67832653 267.55645649 -7.375 257.5625 C-9.96152767 254.64872309 -9.96152767 254.64872309 -10.11328125 252.08984375 C-9.61257128 249.63223061 -8.82289675 247.37048448 -8 245 C-7.31108178 242.41998754 -6.64229461 239.84144223 -6 237.25 C-5.73775635 236.19897095 -5.73775635 236.19897095 -5.47021484 235.12670898 C3.1238785 200.23887834 -1.64796853 164.90951451 -12.33691406 131.13037109 C-13.27961395 128.10165267 -14.14369195 125.05416538 -15 122 C-59.42173065 120.34567348 -100.59388157 141.85354469 -137.00390625 165.34375 C-137.68598145 165.77945313 -138.36805664 166.21515625 -139.07080078 166.6640625 C-141.02129119 167.95416974 -141.02129119 167.95416974 -142.69091797 169.5234375 C-145.21757068 171.73809312 -146.88285857 173.00775629 -150.32080078 172.98388672 C-153.26261476 172.46700008 -156.10944305 171.75282753 -159 171 C-161.50708776 170.46182401 -164.01638411 169.9338741 -166.52734375 169.4140625 C-167.89608004 169.12276467 -169.26464747 168.83067245 -170.63305664 168.5378418 C-182.8943142 165.92929951 -195.15087961 163.48132874 -207.5625 161.6875 C-208.55564209 161.54070801 -209.54878418 161.39391602 -210.57202148 161.24267578 C-230.62944136 158.49701508 -250.77445939 157.61719552 -271 157.6875 C-272.65378159 157.69023422 -272.65378159 157.69023422 -274.3409729 157.69302368 C-293.06075796 157.74477817 -311.42598131 158.55416635 -330 161 C-330.65387695 161.08485657 -331.30775391 161.16971313 -331.98144531 161.25714111 C-349.06226928 163.48590714 -365.83228853 166.59797277 -382.5222168 170.85253906 C-383.69437744 171.14612305 -384.86653809 171.43970703 -386.07421875 171.7421875 C-387.10119873 172.0088623 -388.12817871 172.27553711 -389.1862793 172.55029297 C-392.96251109 173.15383474 -395.70467222 172.7925867 -398.97265625 170.79296875 C-399.66230469 170.26316406 -400.35195313 169.73335937 -401.0625 169.1875 C-434.34158673 145.13624263 -478.90285048 121.46326868 -521 121.9375 C-521.77472656 121.94201172 -522.54945313 121.94652344 -523.34765625 121.95117188 C-525.23180524 121.96280242 -527.11591365 121.98073094 -529 122 C-529.10828125 122.83015625 -529.2165625 123.6603125 -529.328125 124.515625 C-529.94142307 127.69621734 -530.85370392 130.57263219 -531.96801758 133.60742188 C-535.06618297 142.09618225 -537.12556457 150.62656832 -538.8125 159.5 C-539.01907227 160.58506836 -539.22564453 161.67013672 -539.43847656 162.78808594 C-544.56856835 190.86994974 -544.34185826 222.68395707 -533.58203125 249.5390625 C-533 253 -533 253 -534.859375 256 C-535.8039562 257.01792873 -536.76908259 258.01703836 -537.75 259 C-538.7901186 260.13360683 -539.82380094 261.27314679 -540.8515625 262.41796875 C-541.38040039 263.00497559 -541.90923828 263.59198242 -542.45410156 264.19677734 C-578.61532225 306.37725365 -585.63989064 364.46984262 -581.72998047 417.67431641 C-577.44572339 469.64298995 -562.87947386 521.60907229 -526 560 C-525.54077148 560.49032715 -525.08154297 560.9806543 -524.60839844 561.48583984 C-485.91691945 602.69847283 -429.28001331 618.28022062 -375 626 C-373.4465295 626.22728377 -371.89313652 626.45509844 -370.33984375 626.68359375 C-367.22810416 627.13524764 -364.11565697 627.57640442 -361 628 C-362.18197432 630.55029595 -363.07357797 632.07141391 -365.125 634.0625 C-379.16111771 647.72707342 -388.41232173 670.41764437 -389.5 689.875 C-389.90625 692.65234375 -389.90625 692.65234375 -391 695 C-395.30188139 698.11627251 -399.96809598 699.53193022 -405 701 C-405.72977051 701.22768066 -406.45954102 701.45536133 -407.21142578 701.68994141 C-436.13445651 710.70223537 -465.98293593 711.31149958 -493.40625 697.25390625 C-510.85047857 687.07104953 -523.25125942 673.18732855 -533.8125 656.1875 C-549.56305419 630.87639787 -570.09514398 612.83647981 -599.3828125 605.39453125 C-608.96791518 603.94961279 -619.3323264 603.89188943 -628.34765625 607.63671875 C-630.22220497 608.93591405 -630.22220497 608.93591405 -630.80859375 611.46484375 C-631.08833597 615.17000093 -629.9995388 616.87572062 -628 620 C-623.41568666 625.27078085 -618.2648225 629.0115869 -612.375 632.6875 C-585.77862251 649.94500244 -570.1358251 675.4956177 -558.1953125 704.30859375 C-554.40563551 713.43585922 -550.07168734 721.15563471 -544 729 C-543.38640625 729.79792969 -542.7728125 730.59585938 -542.140625 731.41796875 C-522.65427737 754.94315339 -492.60591644 764.72767841 -463.33203125 768.46875 C-460.21661038 768.74739634 -457.12618433 768.90562462 -454 769 C-452.90300781 769.0515625 -451.80601562 769.103125 -450.67578125 769.15625 C-433.94638084 769.58292971 -416.68258243 767.68939183 -400.2980957 764.38037109 C-398 764 -398 764 -394 764 C-393.59873884 780.33218307 -393.26615633 796.6650457 -393 813 C-392.98112732 814.14023621 -392.96225464 815.28047241 -392.94281006 816.45526123 C-392.83696367 823.0729668 -392.75755473 829.69018545 -392.71289062 836.30859375 C-392.69607788 838.38044103 -392.67224914 840.45224425 -392.64111328 842.52392578 C-392.59915156 845.43154322 -392.58347115 848.33821177 -392.57421875 851.24609375 C-392.54801704 852.51041481 -392.54801704 852.51041481 -392.52128601 853.80027771 C-392.54713136 861.00057435 -394.39071582 867.76303513 -398.96484375 873.4375 C-405.97699596 878.99167997 -412.29888199 881.67330832 -421.40551758 880.75830078 C-429.15549373 879.42795371 -436.24483278 876.96371606 -443.5625 874.125 C-444.18938721 873.88390503 -444.81627441 873.64281006 -445.4621582 873.39440918 C-476.63462645 861.38128831 -507.00905716 846.25151137 -535 828 C-535.69222656 827.55317871 -536.38445312 827.10635742 -537.09765625 826.64599609 C-546.66608018 820.45975724 -555.88853679 813.83795994 -565 807 C-565.83893799 806.37375732 -565.83893799 806.37375732 -566.69482422 805.73486328 C-578.19917791 797.12623293 -589.04563002 787.77583011 -599.671875 778.109375 C-601.17003915 776.75197795 -602.67968072 775.40708703 -604.203125 774.078125 C-610.08543323 768.91609941 -615.64540542 763.46106853 -621.1875 757.9375 C-621.94804688 757.18154541 -622.70859375 756.42559082 -623.4921875 755.64672852 C-627.64654314 751.48104446 -631.63552671 747.22891795 -635.47436523 742.77075195 C-637.41809455 740.514732 -639.42710004 738.32161848 -641.4375 736.125 C-645.83801979 731.23635533 -649.96354574 726.1917153 -654 721 C-654.67192383 720.14486816 -654.67192383 720.14486816 -655.35742188 719.27246094 C-668.18398325 702.9283897 -680.56391308 686.03942609 -690.86767578 667.97314453 C-692.13116723 665.77143305 -693.42254951 663.58726747 -694.71484375 661.40234375 C-732.88709365 596.37710018 -755.17898774 523.13388302 -761 448 C-761.05784668 447.31019043 -761.11569336 446.62038086 -761.17529297 445.90966797 C-768.31532487 358.80975361 -749.43698754 269.13032968 -647.20703125 93.27197266 C-641.90647633 87.09083068 -636.49417527 81.0095418 -631 75 C-630.55188965 74.50677246 -630.1037793 74.01354492 -629.64208984 73.50537109 C-620.55104203 63.50368025 -611.3468614 53.52382057 -601.03515625 44.7578125 C-598.59171962 42.6473586 -596.24081179 40.44707121 -593.875 38.25 C-588.12622945 33.01451253 -582.0967398 28.21940945 -575.93164062 23.48583984 C-573.91170877 21.93208538 -571.9009543 20.36693517 -569.890625 18.80078125 C-485.80705584 -46.4424861 -382.28037728 -81.42830784 0 0 Z " fill="#24292F" transform="translate(770,101)"/>
</svg>
