<?xml version="1.0" encoding="UTF-8"?>
<!DOCTYPE svg PUBLIC "-//W3C//DTD SVG 1.1//EN" "http://www.w3.org/Graphics/SVG/1.1/DTD/svg11.dtd">
<svg xmlns="http://www.w3.org/2000/svg" version="1.1" width="512px" height="512px" style="shape-rendering:geometricPrecision; text-rendering:geometricPrecision; image-rendering:optimizeQuality; fill-rule:evenodd; clip-rule:evenodd" xmlns:xlink="http://www.w3.org/1999/xlink">
<g><path style="opacity:0.98" fill="#242021" d="M 40.5,-0.5 C 183.833,-0.5 327.167,-0.5 470.5,-0.5C 479.487,0.989057 484.654,6.32239 486,15.5C 486.848,22.8992 486.515,30.2325 485,37.5C 482.82,42.8534 478.987,46.1867 473.5,47.5C 473.667,137.167 473.5,226.834 473,316.5C 470.565,330.092 462.398,336.425 448.5,335.5C 449.831,343.44 450.831,351.44 451.5,359.5C 462.195,367.546 464.362,377.546 458,389.5C 452.801,395.28 446.468,397.613 439,396.5C 436.61,407.623 430.944,416.623 422,423.5C 421.186,425.902 421.353,428.235 422.5,430.5C 434.917,436.357 447.917,440.523 461.5,443C 468.845,445.679 473.345,450.845 475,458.5C 475.746,472.173 476.579,485.84 477.5,499.5C 477.767,504.379 476.101,508.379 472.5,511.5C 327.833,511.5 183.167,511.5 38.5,511.5C 34.241,508.119 32.5743,503.619 33.5,498C 34.2284,484.493 35.0617,470.993 36,457.5C 38.0993,450.402 42.5993,445.568 49.5,443C 63.0719,440.526 76.0719,436.359 88.5,430.5C 89.6474,428.235 89.8141,425.902 89,423.5C 79.7354,416.969 73.4021,408.302 70,397.5C 51.0335,396.167 44.0335,386.167 49,367.5C 51.2215,363.612 54.3882,360.779 58.5,359C 57.5192,351.587 57.1858,344.087 57.5,336.5C 48.3101,335.808 42.1434,331.141 39,322.5C 38.6667,231.167 38.3333,139.833 38,48.5C 27.5774,44.0013 23.0774,36.0013 24.5,24.5C 22.7979,11.273 28.1312,2.93968 40.5,-0.5 Z M 303.5,336.5 C 317.657,335.504 331.99,335.171 346.5,335.5C 346.831,343.528 346.498,351.528 345.5,359.5C 332.582,370.609 332.248,382.109 344.5,394C 348.799,396.528 353.299,397.361 358,396.5C 360.667,401.833 363.333,407.167 366,412.5C 369.333,417.167 373.333,421.167 378,424.5C 378.743,426.441 378.576,428.274 377.5,430C 373.5,432 369.5,434 365.5,436C 355.418,438.354 345.418,441.021 335.5,444C 332.61,445.938 329.944,448.105 327.5,450.5C 325.423,447.626 322.756,445.459 319.5,444C 309.587,441.022 299.587,438.355 289.5,436C 285.833,434.167 282.167,432.333 278.5,430.5C 277.167,427.833 277.167,425.167 278.5,422.5C 286.69,416.472 291.857,408.472 294,398.5C 311.747,396.656 319.081,386.989 316,369.5C 313.694,364.694 310.194,361.027 305.5,358.5C 306.928,350.877 306.262,343.544 303.5,336.5 Z M 159.5,337.5 C 173.657,336.504 187.99,336.171 202.5,336.5C 202.831,344.196 202.497,351.862 201.5,359.5C 192.994,364.829 189.827,372.496 192,382.5C 195.607,392.466 202.607,397.133 213,396.5C 214,397.5 215,398.5 216,399.5C 218.953,409.448 224.62,417.448 233,423.5C 233.814,425.902 233.647,428.235 232.5,430.5C 220.083,436.357 207.083,440.523 193.5,443C 189.208,444.396 185.708,446.896 183,450.5C 180.337,446.839 176.837,444.339 172.5,443C 158.805,440.662 145.805,436.328 133.5,430C 132.409,427.936 132.242,425.769 133,423.5C 142.287,417.265 147.787,408.598 149.5,397.5C 169.928,395.934 176.761,385.601 170,366.5C 168.305,363.305 165.805,360.972 162.5,359.5C 161.669,353.193 161.169,346.859 161,340.5C 160.768,339.263 160.268,338.263 159.5,337.5 Z"/></g>
<g><path style="opacity:1" fill="#e5e5e6" d="M 39.5,10.5 C 183.5,10.3333 327.5,10.5 471.5,11C 473.333,11.5 474.5,12.6667 475,14.5C 475.667,21.1667 475.667,27.8333 475,34.5C 473.786,36.0488 472.286,37.2155 470.5,38C 326.833,38.6667 183.167,38.6667 39.5,38C 38.3333,36.8333 37.1667,35.6667 36,34.5C 35.3333,27.8333 35.3333,21.1667 36,14.5C 36.6897,12.6498 37.8564,11.3164 39.5,10.5 Z"/></g>
<g><path style="opacity:1" fill="#5fb9e1" d="M 48.5,48.5 C 52.1667,48.5 55.8333,48.5 59.5,48.5C 59.3333,135.501 59.5,222.501 60,309.5C 60.4652,310.931 61.2986,312.097 62.5,313C 73.1667,313.333 83.8333,313.667 94.5,314C 93.541,315.464 92.2077,316.297 90.5,316.5C 80.2371,313.73 71.5705,316.23 64.5,324C 60.8333,324.667 57.1667,324.667 53.5,324C 51.6217,322.457 50.1217,320.624 49,318.5C 48.5,228.501 48.3333,138.501 48.5,48.5 Z"/></g>
<g><path style="opacity:1" fill="#82939c" d="M 70.5,48.5 C 70.5,133.167 70.5,217.833 70.5,302.5C 74.8333,302.5 79.1667,302.5 83.5,302.5C 83.2627,301.209 83.596,300.209 84.5,299.5C 84.5,300.833 84.5,302.167 84.5,303.5C 79.5,303.5 74.5,303.5 69.5,303.5C 69.1673,218.332 69.5007,133.332 70.5,48.5 Z"/></g>
<g><path style="opacity:1" fill="#c9ebfa" d="M 70.5,48.5 C 193.833,48.5 317.167,48.5 440.5,48.5C 440.5,133.167 440.5,217.833 440.5,302.5C 364.5,302.5 288.5,302.5 212.5,302.5C 212.5,297.167 212.5,291.833 212.5,286.5C 217.511,286.334 222.511,286.501 227.5,287C 230.13,290.632 233.13,293.965 236.5,297C 242.938,301.303 249.605,301.636 256.5,298C 261.019,294.571 265.352,290.904 269.5,287C 314.167,286.667 358.833,286.333 403.5,286C 410.333,284.5 414.5,280.333 416,273.5C 416.333,218.167 416.667,162.833 417,107.5C 425.688,101.783 428.688,93.7831 426,83.5C 424.361,77.525 420.528,74.025 414.5,73C 335.167,72.3333 255.833,72.3333 176.5,73C 174.283,74.2684 172.283,75.7684 170.5,77.5C 129.433,75.2534 109.599,94.5867 111,135.5C 102.87,146.662 104.037,156.829 114.5,166C 117.536,168.006 120.869,168.84 124.5,168.5C 126.421,180.683 132.587,190.017 143,196.5C 143.818,199.227 143.652,201.894 142.5,204.5C 138.167,206.667 133.833,208.833 129.5,211C 119.043,213.198 108.71,215.864 98.5,219C 93.5551,221.946 90.0551,226.112 88,231.5C 86.7666,254.167 85.6,276.834 84.5,299.5C 83.596,300.209 83.2627,301.209 83.5,302.5C 79.1667,302.5 74.8333,302.5 70.5,302.5C 70.5,217.833 70.5,133.167 70.5,48.5 Z"/></g>
<g><path style="opacity:1" fill="#5eb5db" d="M 450.5,48.5 C 454.5,48.5 458.5,48.5 462.5,48.5C 462.667,138.501 462.5,228.501 462,318.5C 459.237,323.713 454.903,325.713 449,324.5C 446.5,324.333 444,324.167 441.5,324C 438.084,319.913 434.084,316.58 429.5,314C 435.5,313.667 441.5,313.333 447.5,313C 448.333,312.167 449.167,311.333 450,310.5C 450.5,223.167 450.667,135.834 450.5,48.5 Z"/></g>
<g><path style="opacity:1" fill="#696867" d="M 180.5,82.5 C 258.167,82.3333 335.834,82.5 413.5,83C 415.949,84.8633 416.949,87.3633 416.5,90.5C 416.949,93.6367 415.949,96.1367 413.5,98C 347.164,98.8333 280.831,98.6666 214.5,97.5C 206.321,86.9493 195.655,83.116 182.5,86C 181.177,85.1841 180.511,84.0174 180.5,82.5 Z"/></g>
<g><path style="opacity:1" fill="#6c6b6a" d="M 146.5,88.5 C 154.174,88.3336 161.841,88.5003 169.5,89C 173.78,90.9466 177.113,93.9466 179.5,98C 184.023,97.6772 188.523,96.8439 193,95.5C 200.177,96.0766 204.844,99.7433 207,106.5C 207.831,114.188 207.665,121.855 206.5,129.5C 205.961,126.834 204.628,124.667 202.5,123C 195.686,121.963 189.019,120.296 182.5,118C 179.125,115.314 175.459,113.147 171.5,111.5C 170.062,111.719 168.729,112.219 167.5,113C 156.679,124.707 143.346,129.04 127.5,126C 125.76,127.694 123.76,128.861 121.5,129.5C 119.451,109.23 127.784,95.5632 146.5,88.5 Z"/></g>
<g><path style="opacity:1" fill="#e7e7e8" d="M 400.5,276.5 C 361.33,276.832 322.33,276.499 283.5,275.5C 294.625,266.88 305.625,258.047 316.5,249C 325.799,239.463 326.966,228.963 320,217.5C 310.216,208.922 300.05,208.422 289.5,216C 277.948,227.388 265.948,238.222 253.5,248.5C 246.385,239.546 239.052,230.712 231.5,222C 228.833,220.333 226.167,218.667 223.5,217C 210.835,214.67 198.835,210.503 187.5,204.5C 186.167,201.5 186.167,198.5 187.5,195.5C 196.67,189.168 202.337,180.501 204.5,169.5C 218.859,166.13 224.692,157.13 222,142.5C 221.252,140.668 220.252,139.001 219,137.5C 218.5,127.839 218.334,118.172 218.5,108.5C 281.167,108.5 343.833,108.5 406.5,108.5C 406.667,163.168 406.5,217.834 406,272.5C 404.549,274.464 402.716,275.797 400.5,276.5 Z"/></g>
<g><path style="opacity:1" fill="#f7ceb3" d="M 193.5,131.5 C 194.475,141.751 194.808,152.085 194.5,162.5C 192.461,182.2 181.461,192.2 161.5,192.5C 147.297,190.165 138.13,182.165 134,168.5C 133.5,157.839 133.333,147.172 133.5,136.5C 148.415,138.283 161.081,133.95 171.5,123.5C 178.018,128.34 185.351,131.007 193.5,131.5 Z"/></g>
<g><path style="opacity:1" fill="#252122" d="M 332.5,125.5 C 358.093,122.869 375.26,133.535 384,157.5C 388.385,185.108 377.219,202.941 350.5,211C 322.568,213.955 305.401,201.789 299,174.5C 297.763,149.631 308.929,133.297 332.5,125.5 Z"/></g>
<g><path style="opacity:1" fill="#262223" d="M 233.5,133.5 C 249.503,133.333 265.503,133.5 281.5,134C 284.167,137 284.167,140 281.5,143C 265.5,143.667 249.5,143.667 233.5,143C 229.599,139.792 229.599,136.626 233.5,133.5 Z"/></g>
<g><path style="opacity:1" fill="#c3a48e" d="M 193.5,131.5 C 194.828,136.288 195.495,141.454 195.5,147C 195.499,152.344 195.166,157.511 194.5,162.5C 194.808,152.085 194.475,141.751 193.5,131.5 Z"/></g>
<g><path style="opacity:1" fill="#5fb8df" d="M 333.5,136.5 C 334.5,136.5 335.5,136.5 336.5,136.5C 336.172,148.012 336.505,159.346 337.5,170.5C 344.142,179.482 350.809,188.482 357.5,197.5C 340.457,205.52 325.957,202.187 314,187.5C 304.4,169.709 307.234,154.209 322.5,141C 325.971,138.928 329.638,137.428 333.5,136.5 Z"/></g>
<g><path style="opacity:1" fill="#385462" d="M 333.5,136.5 C 334.568,135.566 335.901,135.232 337.5,135.5C 337.5,147.167 337.5,158.833 337.5,170.5C 336.505,159.346 336.172,148.012 336.5,136.5C 335.5,136.5 334.5,136.5 333.5,136.5 Z"/></g>
<g><path style="opacity:1" fill="#aa464b" d="M 348.5,136.5 C 347.507,145.318 347.173,154.318 347.5,163.5C 346.178,154.325 346.178,144.992 347.5,135.5C 348.107,135.624 348.44,135.957 348.5,136.5 Z"/></g>
<g><path style="opacity:1" fill="#f45b63" d="M 348.5,136.5 C 363.238,139.637 371.905,148.637 374.5,163.5C 365.5,163.5 356.5,163.5 347.5,163.5C 347.173,154.318 347.507,145.318 348.5,136.5 Z"/></g>
<g><path style="opacity:1" fill="#dfbba2" d="M 122.5,139.5 C 123.817,145.678 123.817,152.012 122.5,158.5C 113.193,152.077 113.193,145.743 122.5,139.5 Z"/></g>
<g><path style="opacity:1" fill="#e5bfa6" d="M 205.5,139.5 C 212.356,142.571 214.189,147.571 211,154.5C 209.622,156.213 207.955,157.547 206,158.5C 205.5,152.175 205.334,145.842 205.5,139.5 Z"/></g>
<g><path style="opacity:1" fill="#292526" d="M 233.5,156.5 C 249.503,156.333 265.503,156.5 281.5,157C 284.418,160.472 284.085,163.472 280.5,166C 264.833,166.667 249.167,166.667 233.5,166C 229.511,162.658 229.511,159.491 233.5,156.5 Z"/></g>
<g><path style="opacity:1" fill="#f7a92b" d="M 352.5,173.5 C 359.833,173.5 367.167,173.5 374.5,173.5C 373.608,180.618 370.608,186.618 365.5,191.5C 360.658,185.795 356.325,179.795 352.5,173.5 Z"/></g>
<g><path style="opacity:1" fill="#242021" d="M 232.5,179.5 C 249.17,179.333 265.837,179.5 282.5,180C 285.353,183.096 285.02,185.763 281.5,188C 265.167,188.667 248.833,188.667 232.5,188C 229.899,185.17 229.899,182.337 232.5,179.5 Z"/></g>
<g><path style="opacity:1" fill="#f2caaf" d="M 153.5,201.5 C 161.142,202.711 168.808,202.711 176.5,201.5C 175.656,207.703 173.989,213.703 171.5,219.5C 166.95,220.8 162.45,220.8 158,219.5C 155.566,213.705 154.066,207.705 153.5,201.5 Z"/></g>
<g><path style="opacity:1" fill="#282425" d="M 233.5,201.5 C 249.17,201.333 264.837,201.5 280.5,202C 284.085,204.528 284.418,207.528 281.5,211C 265.5,211.667 249.5,211.667 233.5,211C 229.598,207.809 229.598,204.642 233.5,201.5 Z"/></g>
<g><path style="opacity:1" fill="#5fb8e0" d="M 202.5,261.5 C 201.504,274.99 201.171,288.656 201.5,302.5C 176.5,302.5 151.5,302.5 126.5,302.5C 126.667,288.163 126.5,273.829 126,259.5C 123,256.833 120,256.833 117,259.5C 116.5,274.163 116.333,288.83 116.5,303.5C 109.167,303.5 101.833,303.5 94.5,303.5C 94.9493,279.797 96.116,256.13 98,232.5C 99.5,231 101,229.5 102.5,228C 117.131,225.345 131.131,220.845 144.5,214.5C 146.617,218.677 148.451,223.01 150,227.5C 151.255,228.211 152.421,229.044 153.5,230C 160.833,230.667 168.167,230.667 175.5,230C 177.286,229.215 178.786,228.049 180,226.5C 181.373,222.181 183.206,218.181 185.5,214.5C 195.895,220.017 206.895,223.85 218.5,226C 220.996,227.08 223.33,228.414 225.5,230C 232.718,238.884 239.552,248.051 246,257.5C 247.62,259.726 249.786,261.06 252.5,261.5C 255.872,260.299 258.872,258.466 261.5,256C 269,249.167 276.5,242.333 284,235.5C 288.333,240.167 292.667,244.833 297,249.5C 297.667,250.167 297.667,250.833 297,251.5C 281.456,264.712 265.623,277.546 249.5,290C 246.449,290.857 243.783,290.19 241.5,288C 232.855,277.221 223.855,266.721 214.5,256.5C 211.624,254.041 208.624,253.874 205.5,256C 203.393,257.264 202.393,259.097 202.5,261.5 Z"/></g>
<g><path style="opacity:1" fill="#f3cbb0" d="M 299.5,221.5 C 306.128,220.231 310.961,222.564 314,228.5C 314.584,231.257 314.25,233.923 313,236.5C 310.613,239.377 307.946,242.044 305,244.5C 300.312,239.313 295.812,233.98 291.5,228.5C 294.212,226.115 296.878,223.782 299.5,221.5 Z"/></g>
<g><path style="opacity:1" fill="#252426" d="M 161.5,240.5 C 168.997,239.804 170.997,242.637 167.5,249C 160.215,249.934 158.215,247.101 161.5,240.5 Z"/></g>
<g><path style="opacity:1" fill="#252325" d="M 162.5,259.5 C 169.486,259.331 171.153,262.164 167.5,268C 165.231,268.758 163.064,268.591 161,267.5C 160.133,264.479 160.633,261.812 162.5,259.5 Z"/></g>
<g><path style="opacity:1" fill="#deddde" d="M 212.5,270.5 C 214.5,271.976 216.167,273.809 217.5,276C 215.866,276.494 214.199,276.66 212.5,276.5C 212.5,274.5 212.5,272.5 212.5,270.5 Z"/></g>
<g><path style="opacity:1" fill="#3a3738" d="M 283.5,275.5 C 322.33,276.499 361.33,276.832 400.5,276.5C 361.331,277.831 321.998,277.831 282.5,276.5C 282.624,275.893 282.957,275.56 283.5,275.5 Z"/></g>
<g><path style="opacity:1" fill="#27272a" d="M 162.5,278.5 C 169.341,279.016 171.007,282.182 167.5,288C 159.408,288.09 157.741,284.923 162.5,278.5 Z"/></g>
<g><path style="opacity:1" fill="#4c87a2" d="M 202.5,261.5 C 202.5,275.5 202.5,289.5 202.5,303.5C 176.995,303.831 151.661,303.498 126.5,302.5C 151.5,302.5 176.5,302.5 201.5,302.5C 201.171,288.656 201.504,274.99 202.5,261.5 Z"/></g>
<g><path style="opacity:1" fill="#8597a1" d="M 440.5,48.5 C 441.499,133.332 441.833,218.332 441.5,303.5C 364.833,303.5 288.167,303.5 211.5,303.5C 211.178,297.642 211.511,291.975 212.5,286.5C 212.5,291.833 212.5,297.167 212.5,302.5C 288.5,302.5 364.5,302.5 440.5,302.5C 440.5,217.833 440.5,133.167 440.5,48.5 Z"/></g>
<g><path style="opacity:1" fill="#344a56" d="M 383.5,313.5 C 350.662,313.168 317.996,313.502 285.5,314.5C 284.711,314.217 284.044,313.717 283.5,313C 317.572,312.171 350.905,312.338 383.5,313.5 Z"/></g>
<g><path style="opacity:1" fill="#5db4db" d="M 140.5,314.5 C 173.331,313.336 206.331,313.169 239.5,314C 238.471,315.698 236.971,316.532 235,316.5C 224.068,313.7 214.902,316.533 207.5,325C 189.5,325.667 171.5,325.667 153.5,325C 149.876,320.535 145.543,317.035 140.5,314.5 Z"/></g>
<g><path style="opacity:1" fill="#5eb6dd" d="M 285.5,314.5 C 317.996,313.502 350.662,313.168 383.5,313.5C 383.047,314.458 382.381,315.292 381.5,316C 377.823,316.453 374.156,316.286 370.5,315.5C 363.12,315.857 357.12,318.857 352.5,324.5C 334.176,325.666 315.842,325.833 297.5,325C 294.112,320.805 290.112,317.305 285.5,314.5 Z"/></g>
<g><path style="opacity:1" fill="#6c6b6a" d="M 106.5,319.5 C 122.836,316.554 136.336,321.221 147,333.5C 148.608,336.382 149.941,339.382 151,342.5C 152.243,359.287 149.243,375.287 142,390.5C 132.028,404.386 118.528,409.886 101.5,407C 90.6487,404.331 82.482,398.164 77,388.5C 69.5463,371.563 66.8796,353.897 69,335.5C 72.2138,330.227 76.8804,327.227 83,326.5C 87.2034,327.579 91.3701,328.412 95.5,329C 98.4893,324.87 102.156,321.703 106.5,319.5 Z"/></g>
<g><path style="opacity:1" fill="#6c6b6a" d="M 249.5,319.5 C 257.174,319.334 264.841,319.5 272.5,320C 291.841,327.169 299.341,341.002 295,361.5C 293.608,371.676 290.608,381.343 286,390.5C 275.058,405.371 260.558,410.538 242.5,406C 231.962,402.484 224.462,395.651 220,385.5C 213.84,369.695 211.506,353.362 213,336.5C 214.948,332.097 218.114,328.93 222.5,327C 228.615,326.548 234.615,326.881 240.5,328C 243.068,324.596 246.068,321.763 249.5,319.5 Z"/></g>
<g><path style="opacity:1" fill="#6c6b6a" d="M 397.5,318.5 C 415.447,315.895 428.947,322.228 438,337.5C 441.448,356.383 438.781,374.383 430,391.5C 416.193,407.931 399.36,411.765 379.5,403C 368.624,395.815 362.124,385.648 360,372.5C 356.766,360.703 355.766,348.703 357,336.5C 359.873,329.9 364.873,326.233 372,325.5C 376.055,327.124 380.222,327.957 384.5,328C 387.843,323.343 392.176,320.176 397.5,318.5 Z"/></g>
<g><path style="opacity:0.865" fill="#f65c63" d="M 511.5,357.5 C 511.5,358.5 511.5,359.5 511.5,360.5C 502.312,362.685 496.312,368.352 493.5,377.5C 491.355,373.226 488.688,369.226 485.5,365.5C 482.258,362.75 478.591,360.75 474.5,359.5C 478.222,357.356 481.888,355.023 485.5,352.5C 488.688,348.774 491.355,344.774 493.5,340.5C 495.984,349.986 501.984,355.653 511.5,357.5 Z"/></g>
<g><path style="opacity:0.831" fill="#6dcc6c" d="M -0.5,350.5 C -0.5,348.167 -0.5,345.833 -0.5,343.5C 2.84951,340.939 6.01618,341.273 9,344.5C 9.80471,352.576 6.63805,354.576 -0.5,350.5 Z"/></g>
<g><path style="opacity:1" fill="#e4bea5" d="M 59.5,370.5 C 61.7002,375.605 63.2002,380.938 64,386.5C 57.3257,382.6 55.8257,377.267 59.5,370.5 Z"/></g>
<g><path style="opacity:1" fill="#e7c1a7" d="M 159.5,370.5 C 164.037,376.914 162.871,382.247 156,386.5C 155.5,386.333 155,386.167 154.5,386C 156.667,380.998 158.334,375.831 159.5,370.5 Z"/></g>
<g><path style="opacity:1" fill="#e3bea5" d="M 203.5,371.5 C 205.921,375.755 207.588,380.421 208.5,385.5C 205.358,385.201 203.191,383.534 202,380.5C 201.068,377.177 201.568,374.177 203.5,371.5 Z"/></g>
<g><path style="opacity:1" fill="#eac3a9" d="M 303.5,370.5 C 304.79,371.058 305.623,372.058 306,373.5C 307.893,379.529 306.06,383.862 300.5,386.5C 300.167,386.167 299.833,385.833 299.5,385.5C 301.305,380.611 302.639,375.611 303.5,370.5 Z"/></g>
<g><path style="opacity:1" fill="#e4bfa5" d="M 348.5,370.5 C 349.993,375.435 351.66,380.435 353.5,385.5C 350.558,385.456 348.391,383.789 347,380.5C 346.037,376.851 346.537,373.518 348.5,370.5 Z"/></g>
<g><path style="opacity:1" fill="#e2bda4" d="M 447.5,371.5 C 451.049,372.957 452.216,375.623 451,379.5C 449.926,383.782 447.426,385.782 443.5,385.5C 445.449,380.99 446.782,376.323 447.5,371.5 Z"/></g>
<g><path style="opacity:0.926" fill="#60bae2" d="M 29.5,399.5 C 34.6452,400.323 36.6452,403.323 35.5,408.5C 40.4631,407.318 43.4631,409.152 44.5,414C 43.4631,418.848 40.4631,420.682 35.5,419.5C 36.2632,427.592 33.0966,429.926 26,426.5C 24.7978,424.323 24.2978,421.989 24.5,419.5C 17.0072,420.171 14.6739,417.005 17.5,410C 19.6775,408.798 22.0108,408.298 24.5,408.5C 24.1448,404.125 25.8115,401.125 29.5,399.5 Z"/></g>
<g><path style="opacity:0.874" fill="#fcd770" d="M 469.5,407.5 C 477.022,407.67 479.022,411.003 475.5,417.5C 468.874,419.705 466.041,417.372 467,410.5C 468.045,409.627 468.878,408.627 469.5,407.5 Z"/></g>
<g><path style="opacity:1" fill="#f5ccb1" d="M 122.5,422.5 C 121.549,423.919 121.216,425.585 121.5,427.5C 114.5,427.5 107.5,427.5 100.5,427.5C 100.795,425.265 100.461,423.265 99.5,421.5C 99.2969,419.956 98.6302,418.622 97.5,417.5C 97.8333,417.167 98.1667,416.833 98.5,416.5C 107.239,419.095 115.906,418.762 124.5,415.5C 124.833,415.667 125.167,415.833 125.5,416C 123.781,417.87 122.781,420.037 122.5,422.5 Z"/></g>
<g><path style="opacity:1" fill="#eec7ac" d="M 268.5,415.5 C 269.239,415.369 269.906,415.536 270.5,416C 266.961,419.387 265.628,423.553 266.5,428.5C 259.167,428.5 251.833,428.5 244.5,428.5C 245.154,424.161 244.154,420.327 241.5,417C 250.684,419.24 259.684,418.74 268.5,415.5 Z"/></g>
<g><path style="opacity:1" fill="#f4ccb0" d="M 411.5,421.5 C 410.539,423.265 410.205,425.265 410.5,427.5C 403.5,427.5 396.5,427.5 389.5,427.5C 389.784,425.585 389.451,423.919 388.5,422.5C 388.16,420.321 387.16,418.488 385.5,417C 394.908,419.229 404.242,418.729 413.5,415.5C 413.833,415.667 414.167,415.833 414.5,416C 412.84,417.488 411.84,419.321 411.5,421.5 Z"/></g>
<g><path style="opacity:1" fill="#a08676" d="M 99.5,421.5 C 100.461,423.265 100.795,425.265 100.5,427.5C 107.5,427.5 114.5,427.5 121.5,427.5C 121.216,425.585 121.549,423.919 122.5,422.5C 122.5,424.5 122.5,426.5 122.5,428.5C 114.833,428.5 107.167,428.5 99.5,428.5C 99.5,426.167 99.5,423.833 99.5,421.5 Z"/></g>
<g><path style="opacity:1" fill="#a08676" d="M 411.5,421.5 C 411.5,423.833 411.5,426.167 411.5,428.5C 403.833,428.5 396.167,428.5 388.5,428.5C 388.5,426.5 388.5,424.5 388.5,422.5C 389.451,423.919 389.784,425.585 389.5,427.5C 396.5,427.5 403.5,427.5 410.5,427.5C 410.205,425.265 410.539,423.265 411.5,421.5 Z"/></g>
<g><path style="opacity:1" fill="#e7e7e8" d="M 177.5,488.5 C 177.5,492.833 177.5,497.167 177.5,501.5C 170.833,501.5 164.167,501.5 157.5,501.5C 157.821,496.305 157.487,491.305 156.5,486.5C 156.116,483.95 154.616,482.617 152,482.5C 149.817,482.522 148.317,483.522 147.5,485.5C 146.512,490.64 146.179,495.974 146.5,501.5C 122.5,501.5 98.5,501.5 74.5,501.5C 74.666,496.156 74.4994,490.823 74,485.5C 71.2935,482.022 68.2935,481.689 65,484.5C 64.5005,490.491 64.3338,496.491 64.5,502.5C 57.8333,502.5 51.1667,502.5 44.5,502.5C 44.4322,487.418 45.2656,472.418 47,457.5C 48.5429,455.622 50.3762,454.122 52.5,453C 67.2881,450.58 81.2881,445.914 94.5,439C 105.5,438.333 116.5,438.333 127.5,439C 132.167,441.333 136.833,443.667 141.5,446C 152.267,448.691 162.934,451.691 173.5,455C 174.211,456.255 175.044,457.421 176,458.5C 176.916,468.482 177.416,478.482 177.5,488.5 Z"/></g>
<g><path style="opacity:1" fill="#e7e7e8" d="M 322.5,501.5 C 315.5,501.5 308.5,501.5 301.5,501.5C 301.821,495.974 301.488,490.64 300.5,485.5C 298.947,482.746 296.614,481.913 293.5,483C 292.177,483.816 291.511,484.983 291.5,486.5C 290.513,491.305 290.179,496.305 290.5,501.5C 266.5,501.5 242.5,501.5 218.5,501.5C 218.666,495.824 218.499,490.157 218,484.5C 214.581,481.61 211.581,481.943 209,485.5C 208.501,491.157 208.334,496.824 208.5,502.5C 201.833,502.5 195.167,502.5 188.5,502.5C 189.036,487.819 189.869,473.153 191,458.5C 191.785,456.714 192.951,455.214 194.5,454C 204.402,451.024 214.402,448.358 224.5,446C 229.167,443.667 233.833,441.333 238.5,439C 249.833,438.333 261.167,438.333 272.5,439C 276.993,441.079 281.326,443.412 285.5,446C 296.452,448.071 307.118,451.071 317.5,455C 318.701,455.903 319.535,457.069 320,458.5C 321.096,472.821 321.929,487.155 322.5,501.5 Z"/></g>
<g><path style="opacity:1" fill="#e8e8e9" d="M 466.5,492.5 C 466.5,495.5 466.5,498.5 466.5,501.5C 459.5,501.5 452.5,501.5 445.5,501.5C 445.666,496.156 445.499,490.823 445,485.5C 442.419,481.943 439.419,481.61 436,484.5C 435.501,490.157 435.334,495.824 435.5,501.5C 411.5,501.5 387.5,501.5 363.5,501.5C 363.821,496.305 363.487,491.305 362.5,486.5C 362.116,483.95 360.616,482.617 358,482.5C 355.817,482.522 354.317,483.522 353.5,485.5C 352.512,490.64 352.179,495.974 352.5,501.5C 346.167,501.5 339.833,501.5 333.5,501.5C 333.5,498.5 333.5,495.5 333.5,492.5C 333.952,481.501 334.452,470.501 335,459.5C 336.122,457.376 337.622,455.543 339.5,454C 349.32,450.711 359.32,448.045 369.5,446C 374.167,443.667 378.833,441.333 383.5,439C 394.5,438.333 405.5,438.333 416.5,439C 430.404,446.145 445.071,451.145 460.5,454C 462.81,455.637 464.31,457.804 465,460.5C 465.911,471.15 466.411,481.816 466.5,492.5 Z"/></g>
<g><path style="opacity:1" fill="#939293" d="M 147.5,485.5 C 147.5,491.167 147.5,496.833 147.5,502.5C 122.994,502.831 98.6609,502.498 74.5,501.5C 98.5,501.5 122.5,501.5 146.5,501.5C 146.179,495.974 146.512,490.64 147.5,485.5 Z"/></g>
<g><path style="opacity:1" fill="#918f90" d="M 156.5,486.5 C 157.487,491.305 157.821,496.305 157.5,501.5C 164.167,501.5 170.833,501.5 177.5,501.5C 177.5,497.167 177.5,492.833 177.5,488.5C 178.486,492.97 178.819,497.637 178.5,502.5C 171.167,502.5 163.833,502.5 156.5,502.5C 156.5,497.167 156.5,491.833 156.5,486.5 Z"/></g>
<g><path style="opacity:1" fill="#9b9a9b" d="M 291.5,486.5 C 291.5,491.833 291.5,497.167 291.5,502.5C 266.994,502.831 242.661,502.498 218.5,501.5C 242.5,501.5 266.5,501.5 290.5,501.5C 290.179,496.305 290.513,491.305 291.5,486.5 Z"/></g>
<g><path style="opacity:1" fill="#848283" d="M 300.5,485.5 C 301.488,490.64 301.821,495.974 301.5,501.5C 308.5,501.5 315.5,501.5 322.5,501.5C 315.352,502.492 308.019,502.825 300.5,502.5C 300.5,496.833 300.5,491.167 300.5,485.5 Z"/></g>
<g><path style="opacity:1" fill="#848283" d="M 353.5,485.5 C 353.5,491.167 353.5,496.833 353.5,502.5C 346.5,502.5 339.5,502.5 332.5,502.5C 332.187,498.958 332.521,495.625 333.5,492.5C 333.5,495.5 333.5,498.5 333.5,501.5C 339.833,501.5 346.167,501.5 352.5,501.5C 352.179,495.974 352.512,490.64 353.5,485.5 Z"/></g>
<g><path style="opacity:1" fill="#999899" d="M 362.5,486.5 C 363.487,491.305 363.821,496.305 363.5,501.5C 387.5,501.5 411.5,501.5 435.5,501.5C 411.339,502.498 387.006,502.831 362.5,502.5C 362.5,497.167 362.5,491.833 362.5,486.5 Z"/></g>
<g><path style="opacity:1" fill="#8c8b8c" d="M 466.5,492.5 C 467.479,495.625 467.813,498.958 467.5,502.5C 459.981,502.825 452.648,502.492 445.5,501.5C 452.5,501.5 459.5,501.5 466.5,501.5C 466.5,498.5 466.5,495.5 466.5,492.5 Z"/></g>
</svg>
